<mxfile host="app.diagrams.net" modified="2020-10-31T15:22:15.511Z" agent="5.0 (Macintosh; Intel Mac OS X 10_15_5) AppleWebKit/537.36 (KHTML, like Gecko) Chrome/86.0.4240.111 Safari/537.36" etag="ip-5iV2M4TuHDu5ijeVV" version="13.8.8" type="github">
  <diagram id="6-0Tq95llphK05oc3wfa" name="Page-1">
    <mxGraphModel dx="1495" dy="381" grid="0" gridSize="10" guides="0" tooltips="1" connect="1" arrows="1" fold="1" page="1" pageScale="1" pageWidth="827" pageHeight="1169" math="1" shadow="0">
      <root>
        <mxCell id="0" />
        <mxCell id="1" parent="0" />
        <mxCell id="8qQe7ymEaIGerjZVOJ6V-5" value="&lt;div style=&quot;text-align: left&quot;&gt;&lt;br&gt;&lt;/div&gt;" style="rounded=1;whiteSpace=wrap;html=1;strokeWidth=1;" vertex="1" parent="1">
          <mxGeometry x="110" y="148" width="44" height="23" as="geometry" />
        </mxCell>
        <mxCell id="8qQe7ymEaIGerjZVOJ6V-17" value="$$\check{v}_I, \check{\omega}_I$$" style="text;html=1;align=center;verticalAlign=middle;resizable=0;points=[];autosize=1;" vertex="1" parent="1">
          <mxGeometry x="35" y="150" width="195" height="18" as="geometry" />
        </mxCell>
        <mxCell id="8qQe7ymEaIGerjZVOJ6V-24" value="&lt;div style=&quot;text-align: left&quot;&gt;&lt;br&gt;&lt;/div&gt;" style="rounded=1;whiteSpace=wrap;html=1;strokeWidth=1;" vertex="1" parent="1">
          <mxGeometry x="110" y="98" width="44" height="23" as="geometry" />
        </mxCell>
        <mxCell id="8qQe7ymEaIGerjZVOJ6V-1" value="&lt;div style=&quot;text-align: left&quot;&gt;&lt;br&gt;&lt;/div&gt;" style="rounded=1;whiteSpace=wrap;html=1;strokeWidth=1;" vertex="1" parent="1">
          <mxGeometry x="33" y="148" width="44" height="23" as="geometry" />
        </mxCell>
        <mxCell id="8qQe7ymEaIGerjZVOJ6V-9" style="edgeStyle=orthogonalEdgeStyle;orthogonalLoop=1;jettySize=auto;html=1;exitX=1;exitY=0.5;exitDx=0;exitDy=0;rounded=0;endArrow=block;endFill=1;strokeWidth=1;jumpSize=6;endSize=2;" edge="1" parent="1">
          <mxGeometry relative="1" as="geometry">
            <mxPoint x="154" y="159.5" as="sourcePoint" />
            <mxPoint x="180" y="159.51999999999998" as="targetPoint" />
            <Array as="points">
              <mxPoint x="174" y="160" />
              <mxPoint x="174" y="160" />
            </Array>
          </mxGeometry>
        </mxCell>
        <mxCell id="8qQe7ymEaIGerjZVOJ6V-6" value="&lt;div style=&quot;text-align: left&quot;&gt;&lt;br&gt;&lt;/div&gt;" style="rounded=1;whiteSpace=wrap;html=1;strokeWidth=1;" vertex="1" parent="1">
          <mxGeometry x="180" y="148" width="44" height="23" as="geometry" />
        </mxCell>
        <mxCell id="8qQe7ymEaIGerjZVOJ6V-7" value="&lt;div style=&quot;text-align: left&quot;&gt;&lt;br&gt;&lt;/div&gt;" style="rounded=1;whiteSpace=wrap;html=1;strokeWidth=1;" vertex="1" parent="1">
          <mxGeometry x="250" y="148" width="44" height="23" as="geometry" />
        </mxCell>
        <mxCell id="8qQe7ymEaIGerjZVOJ6V-8" value="&lt;div style=&quot;text-align: left&quot;&gt;&lt;br&gt;&lt;/div&gt;" style="rounded=1;whiteSpace=wrap;html=1;strokeWidth=1;" vertex="1" parent="1">
          <mxGeometry x="320" y="148" width="29" height="23" as="geometry" />
        </mxCell>
        <mxCell id="8qQe7ymEaIGerjZVOJ6V-13" style="edgeStyle=orthogonalEdgeStyle;orthogonalLoop=1;jettySize=auto;html=1;exitX=1;exitY=0.5;exitDx=0;exitDy=0;rounded=0;endArrow=block;endFill=1;strokeWidth=1;jumpSize=6;endSize=2;" edge="1" parent="1">
          <mxGeometry relative="1" as="geometry">
            <mxPoint x="224" y="160" as="sourcePoint" />
            <mxPoint x="250" y="160.02380952380952" as="targetPoint" />
            <Array as="points">
              <mxPoint x="244" y="160.5" />
              <mxPoint x="244" y="160.5" />
            </Array>
          </mxGeometry>
        </mxCell>
        <mxCell id="8qQe7ymEaIGerjZVOJ6V-14" style="edgeStyle=orthogonalEdgeStyle;orthogonalLoop=1;jettySize=auto;html=1;exitX=1;exitY=0.5;exitDx=0;exitDy=0;rounded=0;endArrow=block;endFill=1;strokeWidth=1;jumpSize=6;endSize=2;" edge="1" parent="1">
          <mxGeometry relative="1" as="geometry">
            <mxPoint x="294" y="160" as="sourcePoint" />
            <mxPoint x="320" y="160.02380952380952" as="targetPoint" />
            <Array as="points">
              <mxPoint x="314" y="160.5" />
              <mxPoint x="314" y="160.5" />
            </Array>
          </mxGeometry>
        </mxCell>
        <mxCell id="8qQe7ymEaIGerjZVOJ6V-15" value="$$a_I, \omega_I$$" style="text;html=1;align=center;verticalAlign=middle;resizable=0;points=[];autosize=1;" vertex="1" parent="1">
          <mxGeometry x="77" y="100" width="110" height="18" as="geometry" />
        </mxCell>
        <mxCell id="8qQe7ymEaIGerjZVOJ6V-20" value="&lt;font face=&quot;Times New Roman&quot;&gt;LSTM&lt;/font&gt;" style="text;html=1;align=center;verticalAlign=middle;resizable=0;points=[];autosize=1;" vertex="1" parent="1">
          <mxGeometry x="181" y="150" width="42" height="18" as="geometry" />
        </mxCell>
        <mxCell id="8qQe7ymEaIGerjZVOJ6V-21" value="&lt;font face=&quot;Times New Roman&quot;&gt;Flatten&lt;/font&gt;" style="text;html=1;align=center;verticalAlign=middle;resizable=0;points=[];autosize=1;" vertex="1" parent="1">
          <mxGeometry x="250" y="150" width="43" height="18" as="geometry" />
        </mxCell>
        <mxCell id="8qQe7ymEaIGerjZVOJ6V-22" value="&lt;font face=&quot;Times New Roman&quot;&gt;FC&lt;/font&gt;" style="text;html=1;align=center;verticalAlign=middle;resizable=0;points=[];autosize=1;" vertex="1" parent="1">
          <mxGeometry x="322" y="150" width="25" height="18" as="geometry" />
        </mxCell>
        <mxCell id="8qQe7ymEaIGerjZVOJ6V-23" style="edgeStyle=orthogonalEdgeStyle;orthogonalLoop=1;jettySize=auto;html=1;exitX=1;exitY=0.5;exitDx=0;exitDy=0;rounded=0;endArrow=block;endFill=1;strokeWidth=1;jumpSize=6;endSize=2;" edge="1" parent="1">
          <mxGeometry relative="1" as="geometry">
            <mxPoint x="154" y="109.5" as="sourcePoint" />
            <mxPoint x="180" y="109.51999999999998" as="targetPoint" />
            <Array as="points">
              <mxPoint x="174" y="110" />
              <mxPoint x="174" y="110" />
            </Array>
          </mxGeometry>
        </mxCell>
        <mxCell id="8qQe7ymEaIGerjZVOJ6V-25" value="&lt;div style=&quot;text-align: left&quot;&gt;&lt;br&gt;&lt;/div&gt;" style="rounded=1;whiteSpace=wrap;html=1;strokeWidth=1;" vertex="1" parent="1">
          <mxGeometry x="180" y="98" width="44" height="23" as="geometry" />
        </mxCell>
        <mxCell id="8qQe7ymEaIGerjZVOJ6V-26" value="&lt;div style=&quot;text-align: left&quot;&gt;&lt;br&gt;&lt;/div&gt;" style="rounded=1;whiteSpace=wrap;html=1;strokeWidth=1;" vertex="1" parent="1">
          <mxGeometry x="250" y="98" width="44" height="23" as="geometry" />
        </mxCell>
        <mxCell id="8qQe7ymEaIGerjZVOJ6V-41" style="edgeStyle=orthogonalEdgeStyle;rounded=0;jumpSize=6;orthogonalLoop=1;jettySize=auto;html=1;exitX=1;exitY=0.5;exitDx=0;exitDy=0;entryX=1;entryY=0.5;entryDx=0;entryDy=0;endArrow=none;endFill=0;strokeWidth=1;" edge="1" parent="1" source="8qQe7ymEaIGerjZVOJ6V-27" target="8qQe7ymEaIGerjZVOJ6V-8">
          <mxGeometry relative="1" as="geometry" />
        </mxCell>
        <mxCell id="8qQe7ymEaIGerjZVOJ6V-27" value="&lt;div style=&quot;text-align: left&quot;&gt;&lt;br&gt;&lt;/div&gt;" style="rounded=1;whiteSpace=wrap;html=1;strokeWidth=1;" vertex="1" parent="1">
          <mxGeometry x="320" y="98" width="29" height="23" as="geometry" />
        </mxCell>
        <mxCell id="8qQe7ymEaIGerjZVOJ6V-28" style="edgeStyle=orthogonalEdgeStyle;orthogonalLoop=1;jettySize=auto;html=1;exitX=1;exitY=0.5;exitDx=0;exitDy=0;rounded=0;endArrow=block;endFill=1;strokeWidth=1;jumpSize=6;endSize=2;" edge="1" parent="1">
          <mxGeometry relative="1" as="geometry">
            <mxPoint x="224" y="110" as="sourcePoint" />
            <mxPoint x="250" y="110.02380952380952" as="targetPoint" />
            <Array as="points">
              <mxPoint x="244" y="110.5" />
              <mxPoint x="244" y="110.5" />
            </Array>
          </mxGeometry>
        </mxCell>
        <mxCell id="8qQe7ymEaIGerjZVOJ6V-29" style="edgeStyle=orthogonalEdgeStyle;orthogonalLoop=1;jettySize=auto;html=1;exitX=1;exitY=0.5;exitDx=0;exitDy=0;rounded=0;endArrow=block;endFill=1;strokeWidth=1;jumpSize=6;endSize=2;" edge="1" parent="1">
          <mxGeometry relative="1" as="geometry">
            <mxPoint x="294" y="110" as="sourcePoint" />
            <mxPoint x="320" y="110.02380952380952" as="targetPoint" />
            <Array as="points">
              <mxPoint x="314" y="110.5" />
              <mxPoint x="314" y="110.5" />
            </Array>
          </mxGeometry>
        </mxCell>
        <mxCell id="8qQe7ymEaIGerjZVOJ6V-30" value="&lt;font style=&quot;font-size: 12px&quot; face=&quot;Times New Roman&quot;&gt;LSTM&lt;/font&gt;" style="text;html=1;align=center;verticalAlign=middle;resizable=0;points=[];autosize=1;" vertex="1" parent="1">
          <mxGeometry x="180" y="100" width="42" height="18" as="geometry" />
        </mxCell>
        <mxCell id="8qQe7ymEaIGerjZVOJ6V-31" value="&lt;font face=&quot;Times New Roman&quot;&gt;Flatten&lt;/font&gt;" style="text;html=1;align=center;verticalAlign=middle;resizable=0;points=[];autosize=1;" vertex="1" parent="1">
          <mxGeometry x="250" y="100" width="43" height="18" as="geometry" />
        </mxCell>
        <mxCell id="8qQe7ymEaIGerjZVOJ6V-32" value="&lt;font face=&quot;Times New Roman&quot;&gt;FC&lt;/font&gt;" style="text;html=1;align=center;verticalAlign=middle;resizable=0;points=[];autosize=1;" vertex="1" parent="1">
          <mxGeometry x="322" y="100" width="25" height="18" as="geometry" />
        </mxCell>
        <mxCell id="8qQe7ymEaIGerjZVOJ6V-33" value="$$v_o,\omega_o$$" style="text;html=1;align=center;verticalAlign=middle;resizable=0;points=[];autosize=1;" vertex="1" parent="1">
          <mxGeometry x="-1" y="151" width="113" height="18" as="geometry" />
        </mxCell>
        <mxCell id="8qQe7ymEaIGerjZVOJ6V-34" value="$$^IT_o$$" style="text;html=1;align=center;verticalAlign=middle;resizable=0;points=[];autosize=1;" vertex="1" parent="1">
          <mxGeometry x="59" y="137" width="66" height="18" as="geometry" />
        </mxCell>
        <mxCell id="8qQe7ymEaIGerjZVOJ6V-35" style="edgeStyle=orthogonalEdgeStyle;orthogonalLoop=1;jettySize=auto;html=1;rounded=0;endArrow=block;endFill=1;strokeWidth=1;jumpSize=6;endSize=2;" edge="1" parent="1">
          <mxGeometry relative="1" as="geometry">
            <mxPoint x="77" y="160" as="sourcePoint" />
            <mxPoint x="110" y="160.01999999999998" as="targetPoint" />
            <Array as="points">
              <mxPoint x="104" y="160.5" />
              <mxPoint x="104" y="160.5" />
            </Array>
          </mxGeometry>
        </mxCell>
        <mxCell id="8qQe7ymEaIGerjZVOJ6V-42" style="edgeStyle=orthogonalEdgeStyle;orthogonalLoop=1;jettySize=auto;html=1;exitX=1;exitY=0.5;exitDx=0;exitDy=0;rounded=0;endArrow=block;endFill=1;strokeWidth=1;jumpSize=6;endSize=2;" edge="1" parent="1">
          <mxGeometry relative="1" as="geometry">
            <mxPoint x="369" y="134" as="sourcePoint" />
            <mxPoint x="394" y="134.02380952380952" as="targetPoint" />
            <Array as="points">
              <mxPoint x="388" y="134.5" />
              <mxPoint x="388" y="134.5" />
            </Array>
          </mxGeometry>
        </mxCell>
        <mxCell id="8qQe7ymEaIGerjZVOJ6V-44" value="&lt;div style=&quot;text-align: left&quot;&gt;&lt;br&gt;&lt;/div&gt;" style="rounded=1;whiteSpace=wrap;html=1;strokeWidth=1;" vertex="1" parent="1">
          <mxGeometry x="394" y="123" width="44" height="23" as="geometry" />
        </mxCell>
        <mxCell id="8qQe7ymEaIGerjZVOJ6V-45" value="&lt;font face=&quot;Times New Roman&quot;&gt;Concat&lt;/font&gt;" style="text;html=1;align=center;verticalAlign=middle;resizable=0;points=[];autosize=1;" vertex="1" parent="1">
          <mxGeometry x="393" y="125" width="44" height="18" as="geometry" />
        </mxCell>
        <mxCell id="8qQe7ymEaIGerjZVOJ6V-46" value="&lt;div style=&quot;text-align: left&quot;&gt;&lt;br&gt;&lt;/div&gt;" style="rounded=1;whiteSpace=wrap;html=1;strokeWidth=1;" vertex="1" parent="1">
          <mxGeometry x="464" y="124" width="29" height="23" as="geometry" />
        </mxCell>
        <mxCell id="8qQe7ymEaIGerjZVOJ6V-47" style="edgeStyle=orthogonalEdgeStyle;orthogonalLoop=1;jettySize=auto;html=1;exitX=1;exitY=0.5;exitDx=0;exitDy=0;rounded=0;endArrow=block;endFill=1;strokeWidth=1;jumpSize=6;endSize=2;" edge="1" parent="1">
          <mxGeometry relative="1" as="geometry">
            <mxPoint x="437.9999999999998" y="135.00000000000006" as="sourcePoint" />
            <mxPoint x="464" y="135.02380952380952" as="targetPoint" />
            <Array as="points">
              <mxPoint x="458" y="135.5" />
              <mxPoint x="458" y="135.5" />
            </Array>
          </mxGeometry>
        </mxCell>
        <mxCell id="8qQe7ymEaIGerjZVOJ6V-67" style="edgeStyle=orthogonalEdgeStyle;rounded=0;jumpSize=6;orthogonalLoop=1;jettySize=auto;html=1;entryX=0;entryY=0.5;entryDx=0;entryDy=0;startArrow=none;startFill=0;startSize=6;sourcePerimeterSpacing=2;endArrow=block;endFill=1;endSize=2;targetPerimeterSpacing=0;strokeWidth=1;" edge="1" parent="1" source="8qQe7ymEaIGerjZVOJ6V-48" target="8qQe7ymEaIGerjZVOJ6V-49">
          <mxGeometry relative="1" as="geometry">
            <Array as="points">
              <mxPoint x="520" y="135" />
              <mxPoint x="520" y="110" />
            </Array>
          </mxGeometry>
        </mxCell>
        <mxCell id="8qQe7ymEaIGerjZVOJ6V-48" value="&lt;font face=&quot;Times New Roman&quot;&gt;FC&lt;/font&gt;" style="text;html=1;align=center;verticalAlign=middle;resizable=0;points=[];autosize=1;" vertex="1" parent="1">
          <mxGeometry x="466" y="126" width="25" height="18" as="geometry" />
        </mxCell>
        <mxCell id="8qQe7ymEaIGerjZVOJ6V-49" value="&lt;div style=&quot;text-align: left&quot;&gt;&lt;br&gt;&lt;/div&gt;" style="rounded=1;whiteSpace=wrap;html=1;strokeWidth=1;" vertex="1" parent="1">
          <mxGeometry x="550" y="98" width="44" height="23" as="geometry" />
        </mxCell>
        <mxCell id="8qQe7ymEaIGerjZVOJ6V-50" value="&lt;font face=&quot;Times New Roman&quot;&gt;$$\Delta p$$&lt;/font&gt;" style="text;html=1;align=center;verticalAlign=middle;resizable=0;points=[];autosize=1;" vertex="1" parent="1">
          <mxGeometry x="536" y="100" width="72" height="18" as="geometry" />
        </mxCell>
        <mxCell id="8qQe7ymEaIGerjZVOJ6V-51" value="&lt;div style=&quot;text-align: left&quot;&gt;&lt;br&gt;&lt;/div&gt;" style="rounded=1;whiteSpace=wrap;html=1;strokeWidth=1;" vertex="1" parent="1">
          <mxGeometry x="550" y="148" width="44" height="23" as="geometry" />
        </mxCell>
        <mxCell id="8qQe7ymEaIGerjZVOJ6V-52" value="&lt;font face=&quot;Times New Roman&quot;&gt;$$\Delta q$$&lt;/font&gt;" style="text;html=1;align=center;verticalAlign=middle;resizable=0;points=[];autosize=1;" vertex="1" parent="1">
          <mxGeometry x="536" y="150" width="72" height="18" as="geometry" />
        </mxCell>
        <mxCell id="8qQe7ymEaIGerjZVOJ6V-53" value="&lt;div style=&quot;text-align: left&quot;&gt;&lt;br&gt;&lt;/div&gt;" style="rounded=1;whiteSpace=wrap;html=1;strokeWidth=1;" vertex="1" parent="1">
          <mxGeometry x="635" y="98" width="44" height="23" as="geometry" />
        </mxCell>
        <mxCell id="8qQe7ymEaIGerjZVOJ6V-54" value="&lt;font face=&quot;Times New Roman&quot;&gt;$$\Delta \hat p$$&lt;/font&gt;" style="text;html=1;align=center;verticalAlign=middle;resizable=0;points=[];autosize=1;" vertex="1" parent="1">
          <mxGeometry x="610" y="100" width="93" height="18" as="geometry" />
        </mxCell>
        <mxCell id="8qQe7ymEaIGerjZVOJ6V-55" value="&lt;div style=&quot;text-align: left&quot;&gt;&lt;br&gt;&lt;/div&gt;" style="rounded=1;whiteSpace=wrap;html=1;strokeWidth=1;" vertex="1" parent="1">
          <mxGeometry x="635" y="148" width="44" height="23" as="geometry" />
        </mxCell>
        <mxCell id="8qQe7ymEaIGerjZVOJ6V-56" value="&lt;font face=&quot;Times New Roman&quot;&gt;$$\Delta \hat q$$&lt;/font&gt;" style="text;html=1;align=center;verticalAlign=middle;resizable=0;points=[];autosize=1;" vertex="1" parent="1">
          <mxGeometry x="610" y="150" width="93" height="18" as="geometry" />
        </mxCell>
        <mxCell id="8qQe7ymEaIGerjZVOJ6V-61" value="" style="endArrow=blockThin;html=1;dashed=1;strokeWidth=1;endFill=1;endSize=2;dashPattern=1 1;startArrow=blockThin;startFill=1;targetPerimeterSpacing=2;sourcePerimeterSpacing=6;startSize=2;" edge="1" parent="1">
          <mxGeometry width="50" height="50" relative="1" as="geometry">
            <mxPoint x="594" y="109" as="sourcePoint" />
            <mxPoint x="635" y="109" as="targetPoint" />
          </mxGeometry>
        </mxCell>
        <mxCell id="8qQe7ymEaIGerjZVOJ6V-63" value="" style="endArrow=blockThin;html=1;dashed=1;strokeWidth=1;endFill=1;endSize=2;dashPattern=1 1;startArrow=blockThin;startFill=1;targetPerimeterSpacing=2;sourcePerimeterSpacing=6;startSize=2;" edge="1" parent="1">
          <mxGeometry width="50" height="50" relative="1" as="geometry">
            <mxPoint x="594" y="160" as="sourcePoint" />
            <mxPoint x="635.0000000000002" y="160" as="targetPoint" />
          </mxGeometry>
        </mxCell>
        <mxCell id="8qQe7ymEaIGerjZVOJ6V-64" value="$$\mathcal{L}_{p}$$" style="text;html=1;align=center;verticalAlign=middle;resizable=0;points=[];autosize=1;" vertex="1" parent="1">
          <mxGeometry x="555" y="89" width="118" height="18" as="geometry" />
        </mxCell>
        <mxCell id="8qQe7ymEaIGerjZVOJ6V-65" value="$$\mathcal{L}_{q}$$" style="text;html=1;align=center;verticalAlign=middle;resizable=0;points=[];autosize=1;" vertex="1" parent="1">
          <mxGeometry x="555" y="140" width="118" height="18" as="geometry" />
        </mxCell>
        <mxCell id="8qQe7ymEaIGerjZVOJ6V-74" value="" style="endArrow=none;html=1;strokeWidth=1;endFill=0;startArrow=block;startFill=1;startSize=2;" edge="1" parent="1">
          <mxGeometry width="50" height="50" relative="1" as="geometry">
            <mxPoint x="550" y="160" as="sourcePoint" />
            <mxPoint x="520" y="160" as="targetPoint" />
          </mxGeometry>
        </mxCell>
        <mxCell id="8qQe7ymEaIGerjZVOJ6V-75" value="" style="endArrow=none;html=1;strokeWidth=1;" edge="1" parent="1">
          <mxGeometry width="50" height="50" relative="1" as="geometry">
            <mxPoint x="520" y="160" as="sourcePoint" />
            <mxPoint x="520" y="135" as="targetPoint" />
          </mxGeometry>
        </mxCell>
        <mxCell id="8qQe7ymEaIGerjZVOJ6V-88" value="&lt;div style=&quot;text-align: left&quot;&gt;&lt;br&gt;&lt;/div&gt;" style="rounded=1;whiteSpace=wrap;html=1;strokeWidth=1;" vertex="1" parent="1">
          <mxGeometry x="158" y="248" width="48" height="26" as="geometry" />
        </mxCell>
        <mxCell id="8qQe7ymEaIGerjZVOJ6V-89" value="&lt;div style=&quot;text-align: left&quot;&gt;&lt;br&gt;&lt;/div&gt;" style="rounded=1;whiteSpace=wrap;html=1;strokeWidth=1;" vertex="1" parent="1">
          <mxGeometry x="231" y="248" width="48" height="26" as="geometry" />
        </mxCell>
        <mxCell id="8qQe7ymEaIGerjZVOJ6V-92" value="&lt;font&gt;RNN-1&lt;/font&gt;" style="text;html=1;align=center;verticalAlign=middle;resizable=0;points=[];autosize=1;fontFamily=Times New Roman;" vertex="1" parent="1">
          <mxGeometry x="160" y="252" width="45" height="18" as="geometry" />
        </mxCell>
        <mxCell id="8qQe7ymEaIGerjZVOJ6V-93" value="&lt;font face=&quot;Times New Roman&quot;&gt;FCN-1&lt;/font&gt;" style="text;html=1;align=center;verticalAlign=middle;resizable=0;points=[];autosize=1;" vertex="1" parent="1">
          <mxGeometry x="233" y="252" width="43" height="18" as="geometry" />
        </mxCell>
        <mxCell id="8qQe7ymEaIGerjZVOJ6V-94" value="&lt;div style=&quot;text-align: left&quot;&gt;&lt;br&gt;&lt;/div&gt;" style="rounded=1;whiteSpace=wrap;html=1;strokeWidth=1;" vertex="1" parent="1">
          <mxGeometry x="320" y="240" width="90" height="42" as="geometry" />
        </mxCell>
        <mxCell id="8qQe7ymEaIGerjZVOJ6V-95" value="&lt;font face=&quot;Times New Roman&quot;&gt;Measurement&lt;br&gt;Transformation&lt;br&gt;&lt;/font&gt;" style="text;html=1;align=center;verticalAlign=middle;resizable=0;points=[];autosize=1;" vertex="1" parent="1">
          <mxGeometry x="322" y="244" width="84" height="32" as="geometry" />
        </mxCell>
        <mxCell id="8qQe7ymEaIGerjZVOJ6V-102" style="edgeStyle=orthogonalEdgeStyle;orthogonalLoop=1;jettySize=auto;html=1;exitX=1;exitY=0.5;exitDx=0;exitDy=0;rounded=0;endArrow=block;endFill=1;strokeWidth=1;jumpSize=6;endSize=2;" edge="1" parent="1">
          <mxGeometry relative="1" as="geometry">
            <mxPoint x="279" y="262" as="sourcePoint" />
            <mxPoint x="320" y="262.0238095238095" as="targetPoint" />
            <Array as="points">
              <mxPoint x="299" y="262.5" />
              <mxPoint x="299" y="262.5" />
            </Array>
          </mxGeometry>
        </mxCell>
        <mxCell id="8qQe7ymEaIGerjZVOJ6V-103" style="edgeStyle=orthogonalEdgeStyle;orthogonalLoop=1;jettySize=auto;html=1;exitX=1;exitY=0.5;exitDx=0;exitDy=0;rounded=0;endArrow=block;endFill=1;strokeWidth=1;jumpSize=6;endSize=2;" edge="1" parent="1">
          <mxGeometry relative="1" as="geometry">
            <mxPoint x="205.99999999999977" y="261" as="sourcePoint" />
            <mxPoint x="231" y="261.02" as="targetPoint" />
            <Array as="points">
              <mxPoint x="226" y="261.5" />
              <mxPoint x="226" y="261.5" />
            </Array>
          </mxGeometry>
        </mxCell>
        <mxCell id="8qQe7ymEaIGerjZVOJ6V-105" value="Ext-1" style="text;html=1;strokeColor=none;fillColor=none;align=center;verticalAlign=middle;whiteSpace=wrap;rounded=0;fontFamily=Times New Roman;fontSize=11;" vertex="1" parent="1">
          <mxGeometry x="278" y="242" width="40" height="20" as="geometry" />
        </mxCell>
        <mxCell id="8qQe7ymEaIGerjZVOJ6V-124" value="" style="endArrow=none;dashed=1;html=1;strokeWidth=1;fontFamily=Times New Roman;fontSize=11;" edge="1" parent="1">
          <mxGeometry width="50" height="50" relative="1" as="geometry">
            <mxPoint x="86" y="248" as="sourcePoint" />
            <mxPoint x="128" y="248" as="targetPoint" />
          </mxGeometry>
        </mxCell>
        <mxCell id="8qQe7ymEaIGerjZVOJ6V-125" value="" style="endArrow=none;dashed=1;html=1;strokeWidth=1;fontFamily=Times New Roman;fontSize=11;" edge="1" parent="1">
          <mxGeometry width="50" height="50" relative="1" as="geometry">
            <mxPoint x="86" y="275" as="sourcePoint" />
            <mxPoint x="128" y="275" as="targetPoint" />
          </mxGeometry>
        </mxCell>
        <mxCell id="8qQe7ymEaIGerjZVOJ6V-126" value="" style="endArrow=none;dashed=1;html=1;strokeColor=#000000;strokeWidth=1;fontFamily=Times New Roman;fontSize=11;" edge="1" parent="1">
          <mxGeometry width="50" height="50" relative="1" as="geometry">
            <mxPoint x="126" y="275" as="sourcePoint" />
            <mxPoint x="126" y="224" as="targetPoint" />
          </mxGeometry>
        </mxCell>
        <mxCell id="8qQe7ymEaIGerjZVOJ6V-127" style="edgeStyle=orthogonalEdgeStyle;orthogonalLoop=1;jettySize=auto;html=1;rounded=0;endArrow=block;endFill=1;strokeWidth=1;jumpSize=6;endSize=2;dashed=1;" edge="1" parent="1">
          <mxGeometry relative="1" as="geometry">
            <mxPoint x="126" y="261" as="sourcePoint" />
            <mxPoint x="158" y="261.02" as="targetPoint" />
            <Array as="points">
              <mxPoint x="149" y="261.5" />
              <mxPoint x="149" y="261.5" />
            </Array>
          </mxGeometry>
        </mxCell>
        <mxCell id="8qQe7ymEaIGerjZVOJ6V-131" value="" style="endArrow=none;dashed=1;html=1;strokeWidth=1;fontFamily=Times New Roman;fontSize=11;" edge="1" parent="1">
          <mxGeometry width="50" height="50" relative="1" as="geometry">
            <mxPoint x="126" y="224" as="sourcePoint" />
            <mxPoint x="363" y="224" as="targetPoint" />
          </mxGeometry>
        </mxCell>
        <mxCell id="8qQe7ymEaIGerjZVOJ6V-133" value="" style="endArrow=block;html=1;dashed=1;strokeColor=#000000;strokeWidth=1;fontFamily=Times New Roman;fontSize=11;endFill=1;endSize=2;" edge="1" parent="1">
          <mxGeometry width="50" height="50" relative="1" as="geometry">
            <mxPoint x="363" y="225" as="sourcePoint" />
            <mxPoint x="363" y="240" as="targetPoint" />
          </mxGeometry>
        </mxCell>
        <mxCell id="8qQe7ymEaIGerjZVOJ6V-136" value="&lt;font style=&quot;font-size: 12px&quot;&gt;Robot-1&lt;/font&gt;" style="text;html=1;strokeColor=none;fillColor=none;align=center;verticalAlign=middle;whiteSpace=wrap;rounded=0;fontFamily=Times New Roman;fontSize=11;" vertex="1" parent="1">
          <mxGeometry x="35" y="251" width="51" height="20" as="geometry" />
        </mxCell>
        <mxCell id="8qQe7ymEaIGerjZVOJ6V-137" value="&lt;font style=&quot;font-size: 12px&quot;&gt;IMU&lt;/font&gt;" style="text;html=1;strokeColor=none;fillColor=none;align=center;verticalAlign=middle;whiteSpace=wrap;rounded=0;fontFamily=Times New Roman;fontSize=11;" vertex="1" parent="1">
          <mxGeometry x="83" y="228" width="44" height="18" as="geometry" />
        </mxCell>
        <mxCell id="8qQe7ymEaIGerjZVOJ6V-138" value="&lt;font style=&quot;font-size: 12px&quot;&gt;Odom&lt;/font&gt;" style="text;html=1;strokeColor=none;fillColor=none;align=center;verticalAlign=middle;whiteSpace=wrap;rounded=0;fontFamily=Times New Roman;fontSize=11;" vertex="1" parent="1">
          <mxGeometry x="83" y="275" width="44" height="18" as="geometry" />
        </mxCell>
        <mxCell id="8qQe7ymEaIGerjZVOJ6V-157" value="&lt;div style=&quot;text-align: left&quot;&gt;&lt;br&gt;&lt;/div&gt;" style="rounded=1;whiteSpace=wrap;html=1;strokeWidth=1;" vertex="1" parent="1">
          <mxGeometry x="158" y="355" width="48" height="26" as="geometry" />
        </mxCell>
        <mxCell id="8qQe7ymEaIGerjZVOJ6V-158" value="&lt;div style=&quot;text-align: left&quot;&gt;&lt;br&gt;&lt;/div&gt;" style="rounded=1;whiteSpace=wrap;html=1;strokeWidth=1;" vertex="1" parent="1">
          <mxGeometry x="231" y="355" width="48" height="26" as="geometry" />
        </mxCell>
        <mxCell id="8qQe7ymEaIGerjZVOJ6V-159" value="&lt;font&gt;RNN-2&lt;/font&gt;" style="text;html=1;align=center;verticalAlign=middle;resizable=0;points=[];autosize=1;fontFamily=Times New Roman;" vertex="1" parent="1">
          <mxGeometry x="160" y="359" width="45" height="18" as="geometry" />
        </mxCell>
        <mxCell id="8qQe7ymEaIGerjZVOJ6V-160" value="&lt;font face=&quot;Times New Roman&quot;&gt;FCN-2&lt;/font&gt;" style="text;html=1;align=center;verticalAlign=middle;resizable=0;points=[];autosize=1;" vertex="1" parent="1">
          <mxGeometry x="233" y="359" width="43" height="18" as="geometry" />
        </mxCell>
        <mxCell id="8qQe7ymEaIGerjZVOJ6V-161" value="&lt;div style=&quot;text-align: left&quot;&gt;&lt;br&gt;&lt;/div&gt;" style="rounded=1;whiteSpace=wrap;html=1;strokeWidth=1;" vertex="1" parent="1">
          <mxGeometry x="320" y="347" width="90" height="42" as="geometry" />
        </mxCell>
        <mxCell id="8qQe7ymEaIGerjZVOJ6V-162" value="&lt;font face=&quot;Times New Roman&quot;&gt;Measurement&lt;br&gt;Transformation&lt;br&gt;&lt;/font&gt;" style="text;html=1;align=center;verticalAlign=middle;resizable=0;points=[];autosize=1;" vertex="1" parent="1">
          <mxGeometry x="322" y="351" width="84" height="32" as="geometry" />
        </mxCell>
        <mxCell id="8qQe7ymEaIGerjZVOJ6V-163" style="edgeStyle=orthogonalEdgeStyle;orthogonalLoop=1;jettySize=auto;html=1;exitX=1;exitY=0.5;exitDx=0;exitDy=0;rounded=0;endArrow=block;endFill=1;strokeWidth=1;jumpSize=6;endSize=2;" edge="1" parent="1">
          <mxGeometry relative="1" as="geometry">
            <mxPoint x="278.9999999999998" y="369" as="sourcePoint" />
            <mxPoint x="320" y="369.0238095238095" as="targetPoint" />
            <Array as="points">
              <mxPoint x="299" y="369.5" />
              <mxPoint x="299" y="369.5" />
            </Array>
          </mxGeometry>
        </mxCell>
        <mxCell id="8qQe7ymEaIGerjZVOJ6V-164" style="edgeStyle=orthogonalEdgeStyle;orthogonalLoop=1;jettySize=auto;html=1;exitX=1;exitY=0.5;exitDx=0;exitDy=0;rounded=0;endArrow=block;endFill=1;strokeWidth=1;jumpSize=6;endSize=2;" edge="1" parent="1">
          <mxGeometry relative="1" as="geometry">
            <mxPoint x="206" y="368" as="sourcePoint" />
            <mxPoint x="231" y="368.02" as="targetPoint" />
            <Array as="points">
              <mxPoint x="226" y="368.5" />
              <mxPoint x="226" y="368.5" />
            </Array>
          </mxGeometry>
        </mxCell>
        <mxCell id="8qQe7ymEaIGerjZVOJ6V-165" value="Ext-2" style="text;html=1;strokeColor=none;fillColor=none;align=center;verticalAlign=middle;whiteSpace=wrap;rounded=0;fontFamily=Times New Roman;fontSize=11;" vertex="1" parent="1">
          <mxGeometry x="278" y="349" width="40" height="20" as="geometry" />
        </mxCell>
        <mxCell id="8qQe7ymEaIGerjZVOJ6V-166" value="" style="endArrow=none;dashed=1;html=1;strokeWidth=1;fontFamily=Times New Roman;fontSize=11;" edge="1" parent="1">
          <mxGeometry width="50" height="50" relative="1" as="geometry">
            <mxPoint x="86" y="355" as="sourcePoint" />
            <mxPoint x="128" y="355" as="targetPoint" />
          </mxGeometry>
        </mxCell>
        <mxCell id="8qQe7ymEaIGerjZVOJ6V-167" value="" style="endArrow=none;dashed=1;html=1;strokeWidth=1;fontFamily=Times New Roman;fontSize=11;" edge="1" parent="1">
          <mxGeometry width="50" height="50" relative="1" as="geometry">
            <mxPoint x="86" y="382" as="sourcePoint" />
            <mxPoint x="128" y="382" as="targetPoint" />
          </mxGeometry>
        </mxCell>
        <mxCell id="8qQe7ymEaIGerjZVOJ6V-168" value="" style="endArrow=none;dashed=1;html=1;strokeColor=#000000;strokeWidth=1;fontFamily=Times New Roman;fontSize=11;" edge="1" parent="1">
          <mxGeometry width="50" height="50" relative="1" as="geometry">
            <mxPoint x="126" y="382" as="sourcePoint" />
            <mxPoint x="126" y="331" as="targetPoint" />
          </mxGeometry>
        </mxCell>
        <mxCell id="8qQe7ymEaIGerjZVOJ6V-169" style="edgeStyle=orthogonalEdgeStyle;orthogonalLoop=1;jettySize=auto;html=1;rounded=0;endArrow=block;endFill=1;strokeWidth=1;jumpSize=6;endSize=2;dashed=1;" edge="1" parent="1">
          <mxGeometry relative="1" as="geometry">
            <mxPoint x="126" y="368" as="sourcePoint" />
            <mxPoint x="158" y="368.02" as="targetPoint" />
            <Array as="points">
              <mxPoint x="149" y="368.5" />
              <mxPoint x="149" y="368.5" />
            </Array>
          </mxGeometry>
        </mxCell>
        <mxCell id="8qQe7ymEaIGerjZVOJ6V-170" value="" style="endArrow=none;dashed=1;html=1;strokeWidth=1;fontFamily=Times New Roman;fontSize=11;" edge="1" parent="1">
          <mxGeometry width="50" height="50" relative="1" as="geometry">
            <mxPoint x="126" y="331" as="sourcePoint" />
            <mxPoint x="363" y="331" as="targetPoint" />
          </mxGeometry>
        </mxCell>
        <mxCell id="8qQe7ymEaIGerjZVOJ6V-171" value="" style="endArrow=block;html=1;dashed=1;strokeColor=#000000;strokeWidth=1;fontFamily=Times New Roman;fontSize=11;endFill=1;endSize=2;" edge="1" parent="1">
          <mxGeometry width="50" height="50" relative="1" as="geometry">
            <mxPoint x="363" y="332" as="sourcePoint" />
            <mxPoint x="363" y="347" as="targetPoint" />
          </mxGeometry>
        </mxCell>
        <mxCell id="8qQe7ymEaIGerjZVOJ6V-172" value="&lt;font style=&quot;font-size: 12px&quot;&gt;Robot-2&lt;/font&gt;" style="text;html=1;strokeColor=none;fillColor=none;align=center;verticalAlign=middle;whiteSpace=wrap;rounded=0;fontFamily=Times New Roman;fontSize=11;" vertex="1" parent="1">
          <mxGeometry x="35" y="358" width="51" height="20" as="geometry" />
        </mxCell>
        <mxCell id="8qQe7ymEaIGerjZVOJ6V-173" value="&lt;font style=&quot;font-size: 12px&quot;&gt;IMU&lt;/font&gt;" style="text;html=1;strokeColor=none;fillColor=none;align=center;verticalAlign=middle;whiteSpace=wrap;rounded=0;fontFamily=Times New Roman;fontSize=11;" vertex="1" parent="1">
          <mxGeometry x="83" y="335" width="44" height="18" as="geometry" />
        </mxCell>
        <mxCell id="8qQe7ymEaIGerjZVOJ6V-174" value="&lt;font style=&quot;font-size: 12px&quot;&gt;Odom&lt;/font&gt;" style="text;html=1;strokeColor=none;fillColor=none;align=center;verticalAlign=middle;whiteSpace=wrap;rounded=0;fontFamily=Times New Roman;fontSize=11;" vertex="1" parent="1">
          <mxGeometry x="83" y="382" width="44" height="18" as="geometry" />
        </mxCell>
        <mxCell id="8qQe7ymEaIGerjZVOJ6V-175" value="&lt;div style=&quot;text-align: left&quot;&gt;&lt;br&gt;&lt;/div&gt;" style="rounded=1;whiteSpace=wrap;html=1;strokeWidth=1;" vertex="1" parent="1">
          <mxGeometry x="158" y="478" width="48" height="26" as="geometry" />
        </mxCell>
        <mxCell id="8qQe7ymEaIGerjZVOJ6V-176" value="&lt;div style=&quot;text-align: left&quot;&gt;&lt;br&gt;&lt;/div&gt;" style="rounded=1;whiteSpace=wrap;html=1;strokeWidth=1;" vertex="1" parent="1">
          <mxGeometry x="231" y="478" width="48" height="26" as="geometry" />
        </mxCell>
        <mxCell id="8qQe7ymEaIGerjZVOJ6V-177" value="&lt;font&gt;RNN-2&lt;/font&gt;" style="text;html=1;align=center;verticalAlign=middle;resizable=0;points=[];autosize=1;fontFamily=Times New Roman;" vertex="1" parent="1">
          <mxGeometry x="160" y="482" width="45" height="18" as="geometry" />
        </mxCell>
        <mxCell id="8qQe7ymEaIGerjZVOJ6V-178" value="&lt;font face=&quot;Times New Roman&quot;&gt;FCN-2&lt;/font&gt;" style="text;html=1;align=center;verticalAlign=middle;resizable=0;points=[];autosize=1;" vertex="1" parent="1">
          <mxGeometry x="233" y="482" width="43" height="18" as="geometry" />
        </mxCell>
        <mxCell id="8qQe7ymEaIGerjZVOJ6V-179" value="&lt;div style=&quot;text-align: left&quot;&gt;&lt;br&gt;&lt;/div&gt;" style="rounded=1;whiteSpace=wrap;html=1;strokeWidth=1;" vertex="1" parent="1">
          <mxGeometry x="320" y="470" width="90" height="42" as="geometry" />
        </mxCell>
        <mxCell id="8qQe7ymEaIGerjZVOJ6V-180" value="&lt;font face=&quot;Times New Roman&quot;&gt;Measurement&lt;br&gt;Transformation&lt;br&gt;&lt;/font&gt;" style="text;html=1;align=center;verticalAlign=middle;resizable=0;points=[];autosize=1;" vertex="1" parent="1">
          <mxGeometry x="322" y="474" width="84" height="32" as="geometry" />
        </mxCell>
        <mxCell id="8qQe7ymEaIGerjZVOJ6V-181" style="edgeStyle=orthogonalEdgeStyle;orthogonalLoop=1;jettySize=auto;html=1;exitX=1;exitY=0.5;exitDx=0;exitDy=0;rounded=0;endArrow=block;endFill=1;strokeWidth=1;jumpSize=6;endSize=2;" edge="1" parent="1">
          <mxGeometry relative="1" as="geometry">
            <mxPoint x="278.9999999999998" y="492" as="sourcePoint" />
            <mxPoint x="320" y="492.0238095238095" as="targetPoint" />
            <Array as="points">
              <mxPoint x="299" y="492.5" />
              <mxPoint x="299" y="492.5" />
            </Array>
          </mxGeometry>
        </mxCell>
        <mxCell id="8qQe7ymEaIGerjZVOJ6V-182" style="edgeStyle=orthogonalEdgeStyle;orthogonalLoop=1;jettySize=auto;html=1;exitX=1;exitY=0.5;exitDx=0;exitDy=0;rounded=0;endArrow=block;endFill=1;strokeWidth=1;jumpSize=6;endSize=2;" edge="1" parent="1">
          <mxGeometry relative="1" as="geometry">
            <mxPoint x="206" y="491" as="sourcePoint" />
            <mxPoint x="231" y="491.02" as="targetPoint" />
            <Array as="points">
              <mxPoint x="226" y="491.5" />
              <mxPoint x="226" y="491.5" />
            </Array>
          </mxGeometry>
        </mxCell>
        <mxCell id="8qQe7ymEaIGerjZVOJ6V-183" value="Ext-2" style="text;html=1;strokeColor=none;fillColor=none;align=center;verticalAlign=middle;whiteSpace=wrap;rounded=0;fontFamily=Times New Roman;fontSize=11;" vertex="1" parent="1">
          <mxGeometry x="278" y="472" width="40" height="20" as="geometry" />
        </mxCell>
        <mxCell id="8qQe7ymEaIGerjZVOJ6V-184" value="" style="endArrow=none;dashed=1;html=1;strokeWidth=1;fontFamily=Times New Roman;fontSize=11;" edge="1" parent="1">
          <mxGeometry width="50" height="50" relative="1" as="geometry">
            <mxPoint x="86" y="478" as="sourcePoint" />
            <mxPoint x="128" y="478" as="targetPoint" />
          </mxGeometry>
        </mxCell>
        <mxCell id="8qQe7ymEaIGerjZVOJ6V-185" value="" style="endArrow=none;dashed=1;html=1;strokeWidth=1;fontFamily=Times New Roman;fontSize=11;" edge="1" parent="1">
          <mxGeometry width="50" height="50" relative="1" as="geometry">
            <mxPoint x="86" y="505" as="sourcePoint" />
            <mxPoint x="128" y="505" as="targetPoint" />
          </mxGeometry>
        </mxCell>
        <mxCell id="8qQe7ymEaIGerjZVOJ6V-186" value="" style="endArrow=none;dashed=1;html=1;strokeColor=#000000;strokeWidth=1;fontFamily=Times New Roman;fontSize=11;" edge="1" parent="1">
          <mxGeometry width="50" height="50" relative="1" as="geometry">
            <mxPoint x="126" y="505" as="sourcePoint" />
            <mxPoint x="126" y="453.9999999999999" as="targetPoint" />
          </mxGeometry>
        </mxCell>
        <mxCell id="8qQe7ymEaIGerjZVOJ6V-187" style="edgeStyle=orthogonalEdgeStyle;orthogonalLoop=1;jettySize=auto;html=1;rounded=0;endArrow=block;endFill=1;strokeWidth=1;jumpSize=6;endSize=2;dashed=1;" edge="1" parent="1">
          <mxGeometry relative="1" as="geometry">
            <mxPoint x="126" y="491" as="sourcePoint" />
            <mxPoint x="158" y="491.02" as="targetPoint" />
            <Array as="points">
              <mxPoint x="149" y="491.5" />
              <mxPoint x="149" y="491.5" />
            </Array>
          </mxGeometry>
        </mxCell>
        <mxCell id="8qQe7ymEaIGerjZVOJ6V-188" value="" style="endArrow=none;dashed=1;html=1;strokeWidth=1;fontFamily=Times New Roman;fontSize=11;" edge="1" parent="1">
          <mxGeometry width="50" height="50" relative="1" as="geometry">
            <mxPoint x="126" y="453.9999999999999" as="sourcePoint" />
            <mxPoint x="363" y="453.9999999999999" as="targetPoint" />
          </mxGeometry>
        </mxCell>
        <mxCell id="8qQe7ymEaIGerjZVOJ6V-189" value="" style="endArrow=block;html=1;dashed=1;strokeColor=#000000;strokeWidth=1;fontFamily=Times New Roman;fontSize=11;endFill=1;endSize=2;" edge="1" parent="1">
          <mxGeometry width="50" height="50" relative="1" as="geometry">
            <mxPoint x="363" y="455" as="sourcePoint" />
            <mxPoint x="363" y="470" as="targetPoint" />
          </mxGeometry>
        </mxCell>
        <mxCell id="8qQe7ymEaIGerjZVOJ6V-190" value="&lt;font style=&quot;font-size: 12px&quot;&gt;Robot-2&lt;/font&gt;" style="text;html=1;strokeColor=none;fillColor=none;align=center;verticalAlign=middle;whiteSpace=wrap;rounded=0;fontFamily=Times New Roman;fontSize=11;" vertex="1" parent="1">
          <mxGeometry x="35" y="481" width="51" height="20" as="geometry" />
        </mxCell>
        <mxCell id="8qQe7ymEaIGerjZVOJ6V-191" value="&lt;font style=&quot;font-size: 12px&quot;&gt;IMU&lt;/font&gt;" style="text;html=1;strokeColor=none;fillColor=none;align=center;verticalAlign=middle;whiteSpace=wrap;rounded=0;fontFamily=Times New Roman;fontSize=11;" vertex="1" parent="1">
          <mxGeometry x="83" y="458" width="44" height="18" as="geometry" />
        </mxCell>
        <mxCell id="8qQe7ymEaIGerjZVOJ6V-192" value="&lt;font style=&quot;font-size: 12px&quot;&gt;Odom&lt;/font&gt;" style="text;html=1;strokeColor=none;fillColor=none;align=center;verticalAlign=middle;whiteSpace=wrap;rounded=0;fontFamily=Times New Roman;fontSize=11;" vertex="1" parent="1">
          <mxGeometry x="83" y="505" width="44" height="18" as="geometry" />
        </mxCell>
      </root>
    </mxGraphModel>
  </diagram>
</mxfile>
